<svg viewBox="0 0 778.2000122070312 400" xmlns="http://www.w3.org/2000/svg"><g><g><g><g><g><line x1="61.953125" y1="377" x2="56.953125" y2="377" style="visibility: inherit;" fill="rgb(0, 0, 0)" stroke="rgb(204, 204, 204)" stroke-width="1px"></line><line x1="61.953125" y1="350.07142857142856" x2="56.953125" y2="350.07142857142856" style="visibility: inherit;" fill="rgb(0, 0, 0)" stroke="rgb(204, 204, 204)" stroke-width="1px"></line><line x1="61.953125" y1="323.14285714285717" x2="56.953125" y2="323.14285714285717" style="visibility: inherit;" fill="rgb(0, 0, 0)" stroke="rgb(204, 204, 204)" stroke-width="1px"></line><line x1="61.953125" y1="296.2142857142857" x2="56.953125" y2="296.2142857142857" style="visibility: inherit;" fill="rgb(0, 0, 0)" stroke="rgb(204, 204, 204)" stroke-width="1px"></line><line x1="61.953125" y1="269.2857142857143" x2="56.953125" y2="269.2857142857143" style="visibility: inherit;" fill="rgb(0, 0, 0)" stroke="rgb(204, 204, 204)" stroke-width="1px"></line><line x1="61.953125" y1="242.35714285714286" x2="56.953125" y2="242.35714285714286" style="visibility: inherit;" fill="rgb(0, 0, 0)" stroke="rgb(204, 204, 204)" stroke-width="1px"></line><line x1="61.953125" y1="215.42857142857144" x2="56.953125" y2="215.42857142857144" style="visibility: inherit;" fill="rgb(0, 0, 0)" stroke="rgb(204, 204, 204)" stroke-width="1px"></line><line x1="61.953125" y1="188.5" x2="56.953125" y2="188.5" style="visibility: inherit;" fill="rgb(0, 0, 0)" stroke="rgb(204, 204, 204)" stroke-width="1px"></line><line x1="61.953125" y1="161.5714285714286" x2="56.953125" y2="161.5714285714286" style="visibility: inherit;" fill="rgb(0, 0, 0)" stroke="rgb(204, 204, 204)" stroke-width="1px"></line><line x1="61.953125" y1="134.64285714285717" x2="56.953125" y2="134.64285714285717" style="visibility: inherit;" fill="rgb(0, 0, 0)" stroke="rgb(204, 204, 204)" stroke-width="1px"></line><line x1="61.953125" y1="107.71428571428575" x2="56.953125" y2="107.71428571428575" style="visibility: inherit;" fill="rgb(0, 0, 0)" stroke="rgb(204, 204, 204)" stroke-width="1px"></line><line x1="61.953125" y1="80.78571428571429" x2="56.953125" y2="80.78571428571429" style="visibility: inherit;" fill="rgb(0, 0, 0)" stroke="rgb(204, 204, 204)" stroke-width="1px"></line><line x1="61.953125" y1="53.85714285714283" x2="56.953125" y2="53.85714285714283" style="visibility: inherit;" fill="rgb(0, 0, 0)" stroke="rgb(204, 204, 204)" stroke-width="1px"></line><line x1="61.953125" y1="26.92857142857146" x2="56.953125" y2="26.92857142857146" style="visibility: inherit;" fill="rgb(0, 0, 0)" stroke="rgb(204, 204, 204)" stroke-width="1px"></line><line x1="61.953125" y1="0" x2="56.953125" y2="0" style="visibility: inherit;" fill="rgb(0, 0, 0)" stroke="rgb(204, 204, 204)" stroke-width="1px"></line></g><g transform="translate(51.953125, 0)"><text x="0" y="377" dx="0em" dy="0.3em" style="text-anchor: end; visibility: hidden; font-family: Roboto, sans-serif; font-size: 12px; font-weight: 200;" fill="rgb(33, 33, 33)" stroke="none" stroke-width="1px">-0.05</text><text x="0" y="350.07142857142856" dx="0em" dy="0.3em" style="text-anchor: end; visibility: inherit; font-family: Roboto, sans-serif; font-size: 12px; font-weight: 200;" fill="rgb(33, 33, 33)" stroke="none" stroke-width="1px">0</text><text x="0" y="323.14285714285717" dx="0em" dy="0.3em" style="text-anchor: end; visibility: inherit; font-family: Roboto, sans-serif; font-size: 12px; font-weight: 200;" fill="rgb(33, 33, 33)" stroke="none" stroke-width="1px">0.05</text><text x="0" y="296.2142857142857" dx="0em" dy="0.3em" style="text-anchor: end; visibility: inherit; font-family: Roboto, sans-serif; font-size: 12px; font-weight: 200;" fill="rgb(33, 33, 33)" stroke="none" stroke-width="1px">0.1</text><text x="0" y="269.2857142857143" dx="0em" dy="0.3em" style="text-anchor: end; visibility: inherit; font-family: Roboto, sans-serif; font-size: 12px; font-weight: 200;" fill="rgb(33, 33, 33)" stroke="none" stroke-width="1px">0.15</text><text x="0" y="242.35714285714286" dx="0em" dy="0.3em" style="text-anchor: end; visibility: inherit; font-family: Roboto, sans-serif; font-size: 12px; font-weight: 200;" fill="rgb(33, 33, 33)" stroke="none" stroke-width="1px">0.2</text><text x="0" y="215.42857142857144" dx="0em" dy="0.3em" style="text-anchor: end; visibility: inherit; font-family: Roboto, sans-serif; font-size: 12px; font-weight: 200;" fill="rgb(33, 33, 33)" stroke="none" stroke-width="1px">0.25</text><text x="0" y="188.5" dx="0em" dy="0.3em" style="text-anchor: end; visibility: inherit; font-family: Roboto, sans-serif; font-size: 12px; font-weight: 200;" fill="rgb(33, 33, 33)" stroke="none" stroke-width="1px">0.3</text><text x="0" y="161.5714285714286" dx="0em" dy="0.3em" style="text-anchor: end; visibility: inherit; font-family: Roboto, sans-serif; font-size: 12px; font-weight: 200;" fill="rgb(33, 33, 33)" stroke="none" stroke-width="1px">0.35</text><text x="0" y="134.64285714285717" dx="0em" dy="0.3em" style="text-anchor: end; visibility: inherit; font-family: Roboto, sans-serif; font-size: 12px; font-weight: 200;" fill="rgb(33, 33, 33)" stroke="none" stroke-width="1px">0.4</text><text x="0" y="107.71428571428575" dx="0em" dy="0.3em" style="text-anchor: end; visibility: inherit; font-family: Roboto, sans-serif; font-size: 12px; font-weight: 200;" fill="rgb(33, 33, 33)" stroke="none" stroke-width="1px">0.45</text><text x="0" y="80.78571428571429" dx="0em" dy="0.3em" style="text-anchor: end; visibility: inherit; font-family: Roboto, sans-serif; font-size: 12px; font-weight: 200;" fill="rgb(33, 33, 33)" stroke="none" stroke-width="1px">0.5</text><text x="0" y="53.85714285714283" dx="0em" dy="0.3em" style="text-anchor: end; visibility: inherit; font-family: Roboto, sans-serif; font-size: 12px; font-weight: 200;" fill="rgb(33, 33, 33)" stroke="none" stroke-width="1px">0.55</text><text x="0" y="26.92857142857146" dx="0em" dy="0.3em" style="text-anchor: end; visibility: inherit; font-family: Roboto, sans-serif; font-size: 12px; font-weight: 200;" fill="rgb(33, 33, 33)" stroke="none" stroke-width="1px">0.6</text><text x="0" y="0" dx="0em" dy="0.3em" style="text-anchor: end; visibility: hidden; font-family: Roboto, sans-serif; font-size: 12px; font-weight: 200;" fill="rgb(33, 33, 33)" stroke="none" stroke-width="1px">0.65</text></g><line x1="61.953125" y1="0" x2="61.953125" y2="377" fill="rgb(0, 0, 0)" stroke="rgb(204, 204, 204)" stroke-width="1px"></line></g></g><g transform="translate(61, 0)" clip-path="url(#clip_0)"><clipPath id="clip_0"><rect width="716" height="377"></rect></clipPath><g><g><g><line x1="0" y1="0" x2="0" y2="377" fill="rgb(0, 0, 0)" stroke="rgb(66, 66, 66)" stroke-width="1px" opacity="0.25"></line><line x1="71.62468750000001" y1="0" x2="71.62468750000001" y2="377" fill="rgb(0, 0, 0)" stroke="rgb(66, 66, 66)" stroke-width="1px" opacity="0.25"></line><line x1="143.24937500000001" y1="0" x2="143.24937500000001" y2="377" fill="rgb(0, 0, 0)" stroke="rgb(66, 66, 66)" stroke-width="1px" opacity="0.25"></line><line x1="214.8740625" y1="0" x2="214.8740625" y2="377" fill="rgb(0, 0, 0)" stroke="rgb(66, 66, 66)" stroke-width="1px" opacity="0.25"></line><line x1="286.49875000000003" y1="0" x2="286.49875000000003" y2="377" fill="rgb(0, 0, 0)" stroke="rgb(66, 66, 66)" stroke-width="1px" opacity="0.25"></line><line x1="358.1234375" y1="0" x2="358.1234375" y2="377" fill="rgb(0, 0, 0)" stroke="rgb(66, 66, 66)" stroke-width="1px" opacity="0.25"></line><line x1="429.748125" y1="0" x2="429.748125" y2="377" fill="rgb(0, 0, 0)" stroke="rgb(66, 66, 66)" stroke-width="1px" opacity="0.25"></line><line x1="501.3728125" y1="0" x2="501.3728125" y2="377" fill="rgb(0, 0, 0)" stroke="rgb(66, 66, 66)" stroke-width="1px" opacity="0.25"></line><line x1="572.9975000000001" y1="0" x2="572.9975000000001" y2="377" fill="rgb(0, 0, 0)" stroke="rgb(66, 66, 66)" stroke-width="1px" opacity="0.25"></line><line x1="644.6221875000001" y1="0" x2="644.6221875000001" y2="377" fill="rgb(0, 0, 0)" stroke="rgb(66, 66, 66)" stroke-width="1px" opacity="0.25"></line><line x1="716.246875" y1="0" x2="716.246875" y2="377" fill="rgb(0, 0, 0)" stroke="rgb(66, 66, 66)" stroke-width="1px" opacity="0.25"></line></g><g><line x1="0" y1="377" x2="716.246875" y2="377" fill="rgb(0, 0, 0)" stroke="rgb(66, 66, 66)" stroke-width="1px" opacity="0.25"></line><line x1="0" y1="350.07142857142856" x2="716.246875" y2="350.07142857142856" fill="rgb(0, 0, 0)" stroke="rgb(66, 66, 66)" stroke-width="1px" opacity="0.25"></line><line x1="0" y1="323.14285714285717" x2="716.246875" y2="323.14285714285717" fill="rgb(0, 0, 0)" stroke="rgb(66, 66, 66)" stroke-width="1px" opacity="0.25"></line><line x1="0" y1="296.2142857142857" x2="716.246875" y2="296.2142857142857" fill="rgb(0, 0, 0)" stroke="rgb(66, 66, 66)" stroke-width="1px" opacity="0.25"></line><line x1="0" y1="269.2857142857143" x2="716.246875" y2="269.2857142857143" fill="rgb(0, 0, 0)" stroke="rgb(66, 66, 66)" stroke-width="1px" opacity="0.25"></line><line x1="0" y1="242.35714285714286" x2="716.246875" y2="242.35714285714286" fill="rgb(0, 0, 0)" stroke="rgb(66, 66, 66)" stroke-width="1px" opacity="0.25"></line><line x1="0" y1="215.42857142857144" x2="716.246875" y2="215.42857142857144" fill="rgb(0, 0, 0)" stroke="rgb(66, 66, 66)" stroke-width="1px" opacity="0.25"></line><line x1="0" y1="188.5" x2="716.246875" y2="188.5" fill="rgb(0, 0, 0)" stroke="rgb(66, 66, 66)" stroke-width="1px" opacity="0.25"></line><line x1="0" y1="161.5714285714286" x2="716.246875" y2="161.5714285714286" fill="rgb(0, 0, 0)" stroke="rgb(66, 66, 66)" stroke-width="1px" opacity="0.25"></line><line x1="0" y1="134.64285714285717" x2="716.246875" y2="134.64285714285717" fill="rgb(0, 0, 0)" stroke="rgb(66, 66, 66)" stroke-width="1px" opacity="0.25"></line><line x1="0" y1="107.71428571428575" x2="716.246875" y2="107.71428571428575" fill="rgb(0, 0, 0)" stroke="rgb(66, 66, 66)" stroke-width="1px" opacity="0.25"></line><line x1="0" y1="80.78571428571429" x2="716.246875" y2="80.78571428571429" fill="rgb(0, 0, 0)" stroke="rgb(66, 66, 66)" stroke-width="1px" opacity="0.25"></line><line x1="0" y1="53.85714285714283" x2="716.246875" y2="53.85714285714283" fill="rgb(0, 0, 0)" stroke="rgb(66, 66, 66)" stroke-width="1px" opacity="0.25"></line><line x1="0" y1="26.92857142857146" x2="716.246875" y2="26.92857142857146" fill="rgb(0, 0, 0)" stroke="rgb(66, 66, 66)" stroke-width="1px" opacity="0.25"></line><line x1="0" y1="0" x2="716.246875" y2="0" fill="rgb(0, 0, 0)" stroke="rgb(66, 66, 66)" stroke-width="1px" opacity="0.25"></line></g></g></g><g><g><line x1="0" y1="350.07142857142856" x2="716.246875" y2="350.07142857142856" fill="rgb(0, 0, 0)" stroke="rgb(153, 153, 153)" stroke-width="1.5px"></line></g></g><g><g><line x1="71.62468750000001" y1="0" x2="71.62468750000001" y2="377" fill="rgb(0, 0, 0)" stroke="rgb(153, 153, 153)" stroke-width="1.5px"></line></g></g><g><g><g><g><g><path stroke="rgb(255, 112, 67)" stroke-width="2px" d="M93.04763153125,-1.5360050712312732L93.11925621875,59.06811789103918L93.19088090625002,-6.1415870019367285L93.26250559375,3.974000539098497L93.33413028125001,39.170058608055115L93.40575496875,57.79449648516521L93.47737965625,-21.802138532911016L93.54900434375001,35.33696377277374L93.62062903125,41.783045002392385L114.40611334375002,107.78568555627555L114.47773803125001,151.9759504539626L114.54936271875,143.36236943517417L114.62098740625001,142.01257150513786L114.69261209375,80.96211125169482L114.76423678125002,89.23962314639773L114.83586146875001,72.87292197772436L114.90748615625,111.9374987312726L114.97911084375001,85.25815583126888L135.76459515625,209.08131423166822L135.83621984375003,256.51847105366846L135.90784453125002,260.919053707804L135.97946921875,230.0854097775051L136.05109390625,239.8541341125965L136.12271859375,173.27067565066474L136.19434328125,195.85650144304552L136.26596796875,186.07662991115026L136.33759265625,228.09397791538925L157.12307696875,305.06440880468915L157.19470165625,274.24142252547404L157.26632634375,316.01619260013103L157.33795103125001,301.0116443719183L157.40957571875,284.4837101165738L157.48120040625003,287.24454734367987L157.55282509375002,286.6246861581292L157.62444978125,271.6557142606803L157.69607446875003,238.07865611570224L178.48155878125002,276.56239891052246L178.55318346875,274.68066541637694L178.62480815625,282.71509779776846L178.69643284375002,273.8334784592901L178.76805753125,256.96896547079086L178.83968221875,253.7445685735771L178.91130690625002,260.22334503701757L178.98293159375,296.9777876394136L179.05455628125,297.207745722362L199.84004059375,326.1592649232064L199.91166528125004,331.49342530965805L199.98328996875003,265.40357338956426L200.05491465625002,228.7603780456952L200.12653934375,276.7638349362782L200.19816403125,280.7426538893155L200.26978871875002,314.27040836002146L200.34141340625,285.9778598312821L200.41303809375,302.71193296142985L221.19852240625002,317.8531025658761L221.27014709375,326.2894299136741L221.34177178125003,341.6281101496092L221.41339646875002,335.3068229518831L221.48502115625,328.8338779008814L221.55664584375,310.3589701588665L221.62827053125,335.7838501451271L221.69989521875004,337.72620304248164L221.77151990625003,319.95830364951064L242.55700421875002,341.92032430347587L242.62862890625001,338.8687184868114L242.70025359375,332.59161078397716L242.77187828125,339.9646217551615L242.84350296875002,330.594175967787L242.91512765625,314.00852547585964L242.98675234375003,312.3392227228199L243.05837703125002,320.37914443654677L243.13000171875,329.7076086689319L263.91548603125005,328.55621117992064L263.98711071875005,329.2844866790942L264.05873540625004,295.90461514251575L264.13036009375,336.8233784117869L264.20198478125,288.32489449424406L264.27360946875,281.5757483499391L264.34523415625,306.4419864479985L264.41685884375,290.914382694023L264.48848353125,305.84878544083665L285.27396784375003,332.8379245091762L285.34559253125,318.93787769760405L285.41721721875,322.8270756761943L285.48884190625,318.4251327269844L285.56046659375,330.05936933841025L285.63209128125,333.2844142818025L285.70371596875003,322.72351468673776L285.77534065625,333.05282103589605L285.84696534375,319.45432636248216L306.63244965625,326.9941309775625L306.70407434375,309.98200390381476L306.77569903125004,322.9745212293097L306.84732371875003,310.08425074390004L306.91894840625,321.7909501535552L306.99057309375,300.13003272031034L307.06219778125,319.2301084037338L307.13382246875005,286.55733750760555L307.20544715625005,305.8393998060908L327.99093146875003,326.72396794919456L328.06255615625,344.7789006376905L328.13418084375,339.41309934641635L328.20580553125006,342.07089723114456L328.27743021875006,344.9090601107372L328.34905490625005,347.0856588795515L328.42067959375004,349.20192671849924L328.49230428125003,341.8684620505997L328.56392896875,339.3022944847388L349.34941328125,335.2959706863122L349.42103796875,341.4063710176519L349.49266265625,342.19909300389037L349.56428734375004,344.9897654343929L349.63591203125003,342.8495693555368L349.70753671875,338.78844101407697L349.77916140625,341.2843086107501L349.85078609375,335.57286797783206L349.92241078125,330.45604984036515L370.70789509375,310.6380152319159L370.77951978125,308.36775899359156L370.85114446874996,279.1649363126074L370.92276915625007,292.09981765491625L370.99439384375006,336.650106312441L371.06601853125005,319.07947277809893L371.13764321875004,333.6652286872268L371.20926790625003,329.53496956825256L371.28089259375,291.4801771662065L392.06637690625007,307.0595764624221L392.13800159375006,320.1640412573304L392.20962628125005,326.4351520250951L392.28125096875004,338.18702406542644L392.35287565625003,341.31181646564175L392.42450034375,346.1901247683646L392.49612503125,341.2507105262152L392.56774971875,341.1309172841055L392.63937440625,337.5179575160146L413.42485871875004,337.84500615830933L413.49648340625004,338.4016166324062L413.56810809375,324.3247685783676L413.63973278125,339.23849504068494L413.71135746875,342.1863497676594L413.78298215625,347.6410432322217L413.85460684375005,341.6316723972559L413.92623153125004,330.7138317759548L413.99785621875003,337.7763222918979L434.78334053125,347.75370420449013L434.85496521875,344.7739986599024L434.92658990625006,347.50777920668145L434.99821459375005,346.99405338907883L435.06983928125004,347.2766220878278L435.14146396875003,348.2121726743478L435.21308865625,349.52273427984414L435.28471334375,349.92035351142323L435.35633803125,340.44118046920215L456.14182234375005,349.67487769751875L456.21344703125004,346.4027002163764L456.28507171875003,346.5264655000397L456.35669640625,348.78177918287525L456.42832109375,346.28767227048854L456.49994578125,349.3701473681057L456.57157046875,349.324254400496L456.64319515625,348.420961165202L456.7148198437501,349.0677159536697L477.50030415625,349.9486470110174L477.57192884375,350.01558963343064L477.64355353125,343.8508242757193L477.71517821875,349.9834506990696L477.78680290625005,348.56985717306713L477.85842759375004,349.9562335119491L477.93005228125,350.0344779913742L478.00167696875,350.04473316657925L478.07330165625,349.45451205855767L498.85878596875006,349.74810136691667L498.93041065625005,349.9010321456507L499.00203534375004,350.0509993698205L499.07366003125003,350.0395999939595L499.14528471875,350.0237535552005L499.21690940625,344.14953444046637L499.28853409375,350.02532426073077L499.36015878125,350.04572152948094L499.43178346875,349.33425654434336L520.21726778125,349.7008002029865L520.2888924687501,348.8184355488047L520.36051715625,350.05123318817016L520.4321418437501,346.4213129854096L520.50376653125,350.05266949081334L520.57539121875,350.0233033916406L520.64701590625,350.03841267277727L520.71864059375,350.04465652027494L520.7902652812501,349.19085557432845L541.5757495937501,350.0540766859257L541.64737428125,349.84152240239615L541.71899896875,346.7094327112926L541.7906236562501,350.06519996345537L541.86224834375,350.0526581993015L541.9338730312501,349.20481095033966L542.00549771875,349.21645038887596L542.07712240625,350.0368574575633L542.14874709375,349.72598196333274L562.9342314062501,350.0458364587716L563.00585609375,350.06421625734714L563.0774807812501,349.5987081328307L563.14910546875,350.05020711636047L563.22073015625,350.0590476187411L563.29235484375,350.0138620223214L563.36397953125,350.0483706184771L563.43560421875,344.1667618352388L563.50722890625,350.06332734272655L584.29271321875,350.0558537373202L584.3643379062501,350.0612358061709L584.43596259375,348.6079915808514L584.50758728125,346.98174301960637L584.57921196875,346.8911908549656L584.65083665625,350.06105500874816L584.7224613437501,350.0606292807409L584.79408603125,350.04830011265483L584.86571071875,350.0109043554881L605.65119503125,346.560188980507L605.7228197187501,350.05656064709234L605.79444440625,350.04548269137535L605.8660690937501,349.9631041666892L605.93769378125,349.08671356281934L606.00931846875,350.05787884831966L606.08094315625,350.0644058109327L606.15256784375,350.0227726611941L606.22419253125,350.06367207034964L627.0096768437501,349.8995617999712L627.08130153125,350.03249380059424L627.15292621875,350.0640515272579L627.22455090625,350.0598548413405L627.29617559375,350.00833900550373L627.36780028125,344.3818083354937L627.43942496875,349.794929506041L627.5110496562501,350.05378322809497L627.5826743437501,349.36195042410066L648.36815865625,349.9541309905139L648.43978334375,349.4698546270707L648.51140803125,350.04456860205187L648.58303271875,350.03876070330966L648.6546574062501,350.0609566522934L648.7262820937501,349.96159942333804L648.79790678125,350.0522791705028L648.8695314687501,345.56580224633217L648.94115615625,350.0663651042523L669.7266404687501,350.0589325434817L669.7982651562501,349.9622022486084L669.8698898437501,348.0884440062967L669.94151453125,350.0615232714476L670.0131392187501,348.37417707139895L670.08476390625,348.72498423020755L670.1563885937501,350.06986110084404L670.22801328125,350.0644851165125L670.2996379687501,349.7789505531712L691.08512228125,349.73653691514795L691.15674696875,345.6732866237206L691.22837165625,350.022120672881L691.29999634375,348.545594815697L691.37162103125,349.71262695169673L691.4432457187501,349.99475971932407L691.5148704062501,350.06071161492633L691.58649509375,350.0622303791102L691.6581197812501,350.05718019312656" style="fill: none;" fill="none"></path></g></g></g></g></g></g><g transform="translate(61, 377)" clip-path="url(#clip_1)"><clipPath id="clip_1"><rect width="716" height="23"></rect></clipPath><g><g><line x1="0" y1="0" x2="0" y2="5" style="visibility: inherit;" fill="rgb(0, 0, 0)" stroke="rgb(204, 204, 204)" stroke-width="1px"></line><line x1="71.62468750000001" y1="0" x2="71.62468750000001" y2="5" style="visibility: inherit;" fill="rgb(0, 0, 0)" stroke="rgb(204, 204, 204)" stroke-width="1px"></line><line x1="143.24937500000001" y1="0" x2="143.24937500000001" y2="5" style="visibility: inherit;" fill="rgb(0, 0, 0)" stroke="rgb(204, 204, 204)" stroke-width="1px"></line><line x1="214.8740625" y1="0" x2="214.8740625" y2="5" style="visibility: inherit;" fill="rgb(0, 0, 0)" stroke="rgb(204, 204, 204)" stroke-width="1px"></line><line x1="286.49875000000003" y1="0" x2="286.49875000000003" y2="5" style="visibility: inherit;" fill="rgb(0, 0, 0)" stroke="rgb(204, 204, 204)" stroke-width="1px"></line><line x1="358.1234375" y1="0" x2="358.1234375" y2="5" style="visibility: inherit;" fill="rgb(0, 0, 0)" stroke="rgb(204, 204, 204)" stroke-width="1px"></line><line x1="429.748125" y1="0" x2="429.748125" y2="5" style="visibility: inherit;" fill="rgb(0, 0, 0)" stroke="rgb(204, 204, 204)" stroke-width="1px"></line><line x1="501.3728125" y1="0" x2="501.3728125" y2="5" style="visibility: inherit;" fill="rgb(0, 0, 0)" stroke="rgb(204, 204, 204)" stroke-width="1px"></line><line x1="572.9975000000001" y1="0" x2="572.9975000000001" y2="5" style="visibility: inherit;" fill="rgb(0, 0, 0)" stroke="rgb(204, 204, 204)" stroke-width="1px"></line><line x1="644.6221875000001" y1="0" x2="644.6221875000001" y2="5" style="visibility: inherit;" fill="rgb(0, 0, 0)" stroke="rgb(204, 204, 204)" stroke-width="1px"></line><line x1="716.246875" y1="0" x2="716.246875" y2="5" style="visibility: inherit;" fill="rgb(0, 0, 0)" stroke="rgb(204, 204, 204)" stroke-width="1px"></line></g><g transform="translate(0, 8)"><text x="0" y="0" dx="0em" dy="0.95em" style="text-anchor: middle; visibility: hidden; font-family: Roboto, sans-serif; font-size: 12px; font-weight: 200;" fill="rgb(33, 33, 33)" stroke="none" stroke-width="1px">-10k</text><text x="71.62468750000001" y="0" dx="0em" dy="0.95em" style="text-anchor: middle; visibility: inherit; font-family: Roboto, sans-serif; font-size: 12px; font-weight: 200;" fill="rgb(33, 33, 33)" stroke="none" stroke-width="1px">0</text><text x="143.24937500000001" y="0" dx="0em" dy="0.95em" style="text-anchor: middle; visibility: inherit; font-family: Roboto, sans-serif; font-size: 12px; font-weight: 200;" fill="rgb(33, 33, 33)" stroke="none" stroke-width="1px">10k</text><text x="214.8740625" y="0" dx="0em" dy="0.95em" style="text-anchor: middle; visibility: inherit; font-family: Roboto, sans-serif; font-size: 12px; font-weight: 200;" fill="rgb(33, 33, 33)" stroke="none" stroke-width="1px">20k</text><text x="286.49875000000003" y="0" dx="0em" dy="0.95em" style="text-anchor: middle; visibility: inherit; font-family: Roboto, sans-serif; font-size: 12px; font-weight: 200;" fill="rgb(33, 33, 33)" stroke="none" stroke-width="1px">30k</text><text x="358.1234375" y="0" dx="0em" dy="0.95em" style="text-anchor: middle; visibility: inherit; font-family: Roboto, sans-serif; font-size: 12px; font-weight: 200;" fill="rgb(33, 33, 33)" stroke="none" stroke-width="1px">40k</text><text x="429.748125" y="0" dx="0em" dy="0.95em" style="text-anchor: middle; visibility: inherit; font-family: Roboto, sans-serif; font-size: 12px; font-weight: 200;" fill="rgb(33, 33, 33)" stroke="none" stroke-width="1px">50k</text><text x="501.3728125" y="0" dx="0em" dy="0.95em" style="text-anchor: middle; visibility: inherit; font-family: Roboto, sans-serif; font-size: 12px; font-weight: 200;" fill="rgb(33, 33, 33)" stroke="none" stroke-width="1px">60k</text><text x="572.9975000000001" y="0" dx="0em" dy="0.95em" style="text-anchor: middle; visibility: inherit; font-family: Roboto, sans-serif; font-size: 12px; font-weight: 200;" fill="rgb(33, 33, 33)" stroke="none" stroke-width="1px">70k</text><text x="644.6221875000001" y="0" dx="0em" dy="0.95em" style="text-anchor: middle; visibility: inherit; font-family: Roboto, sans-serif; font-size: 12px; font-weight: 200;" fill="rgb(33, 33, 33)" stroke="none" stroke-width="1px">80k</text><text x="716.246875" y="0" dx="0em" dy="0.95em" style="text-anchor: middle; visibility: hidden; font-family: Roboto, sans-serif; font-size: 12px; font-weight: 200;" fill="rgb(33, 33, 33)" stroke="none" stroke-width="1px">90k</text></g><line x1="0" y1="0" x2="716.246875" y2="0" fill="rgb(0, 0, 0)" stroke="rgb(204, 204, 204)" stroke-width="1px"></line></g></g></g></g></svg>